<svg width="171" height="40" viewBox="0 0 171 40" fill="none" xmlns="http://www.w3.org/2000/svg">
<path d="M48.3594 9.37109H51.882V25.6552H60.2959V28.7153H48.3594V9.37109Z" fill="white"/>
<path d="M62.1211 15.5977H65.4756V28.7124H62.1211V15.5977Z" fill="white"/>
<path d="M67.2227 15.5977H70.8848L74.4075 25.1609H74.4638L78.0141 15.5977H81.5645L76.2251 28.7124H72.647L67.2227 15.5977Z" fill="white"/>
<path d="M95.5196 22.3195C95.5196 22.4658 95.5196 22.6112 95.5196 22.7566C95.5196 22.9029 95.5104 23.0484 95.4919 23.1938H85.2889C85.3259 23.6679 85.452 24.1002 85.6664 24.4913C85.8808 24.8833 86.1649 25.2202 86.5189 25.502C86.8728 25.7847 87.2738 26.0074 87.7211 26.1717C88.1684 26.3361 88.6341 26.4174 89.1184 26.4174C89.9574 26.4174 90.6653 26.2671 91.2429 25.9663C91.8205 25.6656 92.2955 25.2514 92.6688 24.723L94.9051 26.4717C93.5818 28.2203 91.6624 29.0946 89.1461 29.0946C88.102 29.0946 87.1427 28.9352 86.2667 28.6164C85.3906 28.2975 84.6315 27.8472 83.9883 27.2638C83.3452 26.6812 82.8424 25.9663 82.4784 25.1191C82.1152 24.2719 81.9336 23.3113 81.9336 22.2365C81.9336 21.1806 82.1152 20.2192 82.4784 19.3539C82.8416 18.4886 83.3401 17.7515 83.974 17.141C84.6071 16.5312 85.3578 16.0571 86.2246 15.7202C87.0914 15.3833 88.028 15.2148 89.0343 15.2148C89.9658 15.2148 90.8276 15.3652 91.6204 15.666C92.4123 15.9667 93.0975 16.4129 93.6751 17.0046C94.2527 17.597 94.705 18.3341 95.0312 19.2175C95.3565 20.1025 95.5196 21.1362 95.5196 22.3195ZM92.1652 20.8445C92.1652 20.4254 92.1046 20.0244 91.9836 19.6423C91.8625 19.2594 91.6717 18.9233 91.4102 18.6316C91.1487 18.3407 90.8183 18.1081 90.4181 17.9348C90.0171 17.7622 89.5472 17.6751 89.0066 17.6751C88.0002 17.6751 87.1477 17.9717 86.4491 18.5634C85.7505 19.1558 85.3629 19.9159 85.2889 20.8445H92.1652Z" fill="white"/>
<path d="M95.4414 9.37109H99.2995L103.129 23.5787H103.184L107.545 9.37109H111.18L115.456 23.5787H115.512L119.425 9.37109H123.172L117.385 28.7153H113.974L109.333 14.2069H109.278L104.637 28.7153H101.226L95.4414 9.37109Z" fill="white"/>
<path d="M125.105 15.5977H128.46V28.7124H125.105V15.5977Z" fill="white"/>
<path d="M132.013 15.5978H135.227V17.7836H135.283C135.655 17.0185 136.177 16.3998 136.848 15.9256C137.519 15.4523 138.302 15.2148 139.197 15.2148C139.327 15.2148 139.466 15.2198 139.616 15.2288C139.765 15.2379 139.896 15.2609 140.008 15.297V18.3029C139.784 18.2487 139.592 18.2117 139.434 18.1936C139.276 18.1755 139.123 18.1665 138.973 18.1665C138.209 18.1665 137.593 18.3029 137.128 18.5765C136.662 18.8502 136.298 19.178 136.037 19.5601C135.776 19.9431 135.599 20.3342 135.506 20.7352C135.412 21.1362 135.366 21.455 135.366 21.6917V28.7133H132.012L132.013 15.5978Z" fill="white"/>
<path d="M154.547 22.3195C154.547 22.4658 154.547 22.6112 154.547 22.7566C154.547 22.9029 154.538 23.0484 154.519 23.1938H144.316C144.353 23.6679 144.479 24.1002 144.694 24.4913C144.908 24.8833 145.192 25.2202 145.546 25.502C145.9 25.7847 146.301 26.0074 146.748 26.1717C147.196 26.3361 147.661 26.4174 148.146 26.4174C148.985 26.4174 149.693 26.2671 150.27 25.9663C150.848 25.6656 151.323 25.2514 151.696 24.723L153.932 26.4717C152.609 28.2203 150.69 29.0946 148.173 29.0946C147.129 29.0946 146.17 28.9352 145.294 28.6164C144.418 28.2975 143.659 27.8472 143.016 27.2638C142.373 26.6812 141.87 25.9663 141.506 25.1191C141.143 24.2719 140.961 23.3113 140.961 22.2365C140.961 21.1806 141.143 20.2192 141.506 19.3539C141.869 18.4886 142.367 17.7515 143.001 17.141C143.634 16.5312 144.385 16.0571 145.252 15.7202C146.119 15.3833 147.055 15.2148 148.062 15.2148C148.993 15.2148 149.855 15.3652 150.648 15.666C151.44 15.9667 152.125 16.4129 152.702 17.0046C153.28 17.597 153.732 18.3341 154.059 19.2175C154.384 20.1025 154.547 21.1362 154.547 22.3195ZM151.193 20.8445C151.193 20.4254 151.132 20.0244 151.011 19.6423C150.89 19.2594 150.699 18.9233 150.438 18.6316C150.176 18.3407 149.846 18.1081 149.445 17.9348C149.044 17.7622 148.574 17.6751 148.034 17.6751C147.028 17.6751 146.175 17.9717 145.476 18.5634C144.778 19.1558 144.39 19.9159 144.316 20.8445H151.193Z" fill="white"/>
<path d="M170.999 28.7143H167.812V26.7471H167.756C167.29 27.5121 166.642 28.0956 165.813 28.4957C164.984 28.8959 164.094 29.0972 163.144 29.0972C162.119 29.0972 161.201 28.9099 160.391 28.5368C159.58 28.1638 158.89 27.6625 158.322 27.0339C157.754 26.4053 157.316 25.6682 157.008 24.821C156.701 23.9738 156.547 23.0682 156.547 22.1027C156.547 21.1372 156.705 20.2357 157.022 19.3976C157.339 18.5602 157.786 17.8314 158.364 17.2118C158.941 16.593 159.631 16.1049 160.433 15.7499C161.234 15.395 162.11 15.2175 163.061 15.2175C163.675 15.2175 164.225 15.2857 164.71 15.4221C165.195 15.5585 165.619 15.7269 165.982 15.9274C166.345 16.1279 166.657 16.3465 166.919 16.5832C167.179 16.8198 167.394 17.0475 167.562 17.266H167.646V8.05859H171.001V28.7143H170.999ZM159.957 22.1019C159.957 22.6122 160.036 23.1225 160.195 23.6319C160.353 24.1422 160.591 24.5975 160.908 24.9976C161.225 25.3986 161.625 25.7265 162.11 25.9813C162.594 26.2368 163.163 26.3642 163.815 26.3642C164.43 26.3642 164.979 26.2409 165.464 25.9952C165.949 25.7495 166.363 25.4258 166.709 25.0256C167.053 24.6254 167.314 24.1743 167.491 23.673C167.668 23.1726 167.757 22.6664 167.757 22.1569C167.757 21.6475 167.669 21.1372 167.491 20.6269C167.314 20.1174 167.053 19.6614 166.709 19.2604C166.364 18.8602 165.95 18.5323 165.464 18.2768C164.979 18.022 164.43 17.8938 163.815 17.8938C163.163 17.8938 162.594 18.0171 162.11 18.2628C161.625 18.5085 161.225 18.8322 160.908 19.2324C160.591 19.6334 160.353 20.0837 160.195 20.585C160.036 21.0871 159.957 21.5924 159.957 22.1019Z" fill="white"/>
<path d="M37.1035 19.9376V19.3771C37.1035 17.9835 37.1085 16.5898 37.1018 15.197C37.0959 14.0655 36.2628 13.2306 35.1623 13.2347C34.0609 13.2397 33.2496 14.0729 33.2395 15.2135C33.2353 15.7065 33.2715 16.2036 33.2227 16.6926C33.1925 16.9974 33.0933 17.3261 32.9259 17.5825C32.5409 18.175 31.8069 18.396 31.126 18.1922C30.4509 17.9901 29.9851 17.4107 29.9784 16.6983C29.9641 15.2324 29.9759 13.7664 29.97 12.3004C29.9658 11.1237 29.1612 10.2798 28.0506 10.2749C26.94 10.2691 26.1203 11.1155 26.1127 12.284C26.1069 13.2857 26.1153 14.2874 26.1085 15.2891C26.1069 15.4896 26.0968 15.6991 26.0388 15.8897C25.8118 16.6342 25.0425 17.1297 24.301 17.0295C23.4662 16.9169 22.8541 16.2833 22.8457 15.4698C22.8306 14.0474 22.8407 12.625 22.839 11.2026C22.8373 10.0095 22.0664 9.17131 20.9507 9.14748C19.8393 9.12365 19.0238 9.94455 18.9826 11.127C18.9498 12.0761 18.2411 12.7861 17.3348 12.7779C16.4251 12.7696 15.7206 12.0531 15.7097 11.1065C15.7004 10.2938 15.7139 9.4811 15.7046 8.66759C15.6971 8.00117 15.4348 7.4465 14.8572 7.07591C14.2384 6.67819 13.57 6.63957 12.9092 6.96333C12.1887 7.31667 11.8625 7.92803 11.8592 8.70046C11.8516 10.9651 11.8651 13.229 11.8474 15.4937C11.8407 16.3672 11.0739 17.0623 10.2004 17.0508C9.33532 17.0393 8.61987 16.3622 8.58036 15.5076C8.56606 15.2036 8.58624 14.8979 8.57279 14.5931C8.51478 13.2964 7.35459 12.4615 6.10191 12.8091C5.26119 13.0425 4.73322 13.7738 4.7307 14.7286C4.72649 16.3105 4.71724 17.8931 4.7391 19.4749C4.74415 19.8661 4.61804 19.9712 4.23215 19.9581C3.46121 19.9318 2.6869 19.9326 1.91596 19.9622C1.59901 19.9745 1.26188 20.0411 0.976038 20.1717C0.24377 20.5062 -0.134554 21.3394 0.0436786 22.1036C0.249655 22.9853 0.927276 23.5145 1.91344 23.5334C2.68522 23.5482 3.45784 23.5351 4.23047 23.5375C4.38684 23.5384 4.54238 23.5556 4.72902 23.5679C4.72902 24.213 4.71977 24.8063 4.7307 25.3996C4.7576 26.7669 6.03886 27.6536 7.32432 27.2016C8.13562 26.9165 8.54505 26.2468 8.57615 25.1506C8.60306 24.2204 9.28488 23.5458 10.2046 23.5416C11.1269 23.5375 11.8297 24.2072 11.8516 25.1309C11.8651 25.711 11.8482 26.292 11.8558 26.8729C11.8667 27.7431 12.3754 28.4432 13.1724 28.7013C14.4612 29.1187 15.7004 28.2058 15.7055 26.8228C15.7122 24.849 15.6996 22.8744 15.7114 20.9006C15.7172 19.9137 16.4672 19.2333 17.4575 19.2794C18.3243 19.3188 18.9775 20.0189 18.9801 20.9466C18.9868 23.821 18.97 26.6946 18.9969 29.569C19.0002 29.97 19.1196 30.4121 19.3197 30.7605C19.7308 31.4762 20.6304 31.7622 21.4552 31.5362C22.2841 31.3086 22.8348 30.574 22.8381 29.6684C22.844 28.1441 22.8264 26.6198 22.8465 25.0963C22.8583 24.2245 23.5721 23.5564 24.4431 23.5458C25.3452 23.5342 26.0623 24.1924 26.1052 25.0791C26.1178 25.3396 26.1094 25.6017 26.1111 25.863C26.1195 27.0175 26.9081 27.836 28.0187 27.8442C29.1553 27.8532 29.9632 27.0356 29.97 25.863C29.975 24.978 29.9624 24.0922 29.975 23.2064C29.9885 22.2902 30.7039 21.5835 31.5993 21.5785C32.4913 21.5744 33.2152 22.2836 33.2328 23.1965C33.2454 23.835 33.2337 24.4735 33.2379 25.1128C33.2454 26.287 34.0525 27.1277 35.1681 27.1285C36.2838 27.1293 37.0951 26.287 37.1018 25.1177C37.1052 24.6436 37.1026 24.1694 37.1026 23.6444C37.3364 23.6444 37.5104 23.6444 37.6844 23.6444C38.9463 23.6452 40.2091 23.6518 41.471 23.6452C42.6363 23.6394 43.4459 22.8728 43.4459 21.7905C43.4467 20.7075 42.6405 19.9458 41.4702 19.9392C40.2083 19.9326 38.9455 19.9384 37.6836 19.9384C37.5104 19.9376 37.3364 19.9376 37.1035 19.9376Z" fill="#FF3797"/>
<path d="M22.8395 3.75857C22.8395 3.14967 22.8471 2.54078 22.8378 1.93188C22.8218 0.829122 21.9937 0.00164406 20.9159 6.11471e-07C19.8364 -0.000821114 18.9974 0.826656 18.9881 1.9253C18.9781 3.12831 18.9781 4.33214 18.9873 5.53514C18.9957 6.64529 19.8146 7.45469 20.9083 7.45552C22.0046 7.45634 22.8227 6.64858 22.837 5.54254C22.8454 4.94761 22.8386 4.3535 22.8395 3.75857Z" fill="#FF3797"/>
<path d="M22.8374 36.6874C22.8374 36.1804 22.8484 35.6726 22.8349 35.1656C22.808 34.1023 21.9547 33.2855 20.8962 33.297C19.8462 33.3085 19.008 34.1048 18.9869 35.1492C18.9676 36.1344 18.9685 37.1205 18.9861 38.1057C19.0054 39.1797 19.8428 39.9924 20.9013 39.999C21.974 40.0056 22.8164 39.1732 22.8358 38.0786C22.8442 37.6152 22.8374 37.1509 22.8374 36.6874Z" fill="#FF3797"/>
<path d="M28.0285 8.58919C29.1063 8.59494 29.9546 7.78637 29.9722 6.73456C29.9907 5.67535 29.1231 4.8224 28.0352 4.82815C26.9641 4.83391 26.1083 5.6696 26.1133 6.70662C26.1192 7.76007 26.9565 8.58344 28.0285 8.58919Z" fill="#FF3797"/>
<path d="M28.0471 28.9961C26.9777 28.9953 26.1269 29.8195 26.1134 30.868C26.1 31.9149 26.9962 32.7949 28.0614 32.7793C29.1224 32.7637 29.9816 31.9075 29.9723 30.8754C29.9631 29.8269 29.1131 28.9969 28.0471 28.9961Z" fill="#FF3797"/>
<path d="M13.8024 5.04399C14.8785 5.03495 15.7259 4.19597 15.7091 3.15649C15.6923 2.10879 14.8356 1.28953 13.7662 1.29692C12.7027 1.30432 11.8502 2.15152 11.8594 3.19182C11.8695 4.23788 12.7237 5.05303 13.8024 5.04399Z" fill="#FF3797"/>
<path d="M13.7741 34.191C14.8678 34.1943 15.7178 33.3783 15.7077 32.3347C15.6985 31.315 14.8468 30.4941 13.7934 30.4883C12.7257 30.4826 11.8471 31.3314 11.8555 32.3594C11.8648 33.3849 12.7055 34.1885 13.7741 34.191Z" fill="#FF3797"/>
<path d="M6.66029 32.7309C7.72044 32.7284 8.57125 31.9141 8.57966 30.896C8.58806 29.8672 7.70531 29.0052 6.6502 29.0118C5.58753 29.0175 4.70982 29.8844 4.73084 30.9058C4.75186 31.933 5.59846 32.7334 6.66029 32.7309Z" fill="#FF3797"/>
<path d="M37.1026 19.9381C37.3355 19.9381 37.5096 19.9381 37.6836 19.9381C38.9455 19.9381 40.2083 19.9315 41.4702 19.9389C42.6405 19.9455 43.4459 20.7081 43.4459 21.7903C43.445 22.8725 42.6363 23.6392 41.471 23.6449C40.2091 23.6515 38.9463 23.6449 37.6844 23.6441C37.5104 23.6441 37.3364 23.6441 37.1026 23.6441C37.1026 24.1692 37.1052 24.6433 37.1018 25.1174C37.0942 26.2868 36.2829 27.1298 35.1682 27.1282C34.0525 27.1274 33.2463 26.2868 33.2379 25.1125C33.2337 24.474 33.2446 23.8347 33.2328 23.1962C33.2152 22.2841 32.4913 21.5742 31.5993 21.5783C30.7039 21.5824 29.9885 22.2891 29.975 23.2061C29.9624 24.0911 29.9742 24.9769 29.97 25.8627C29.9641 27.0353 29.1562 27.853 28.0187 27.8439C26.9081 27.8349 26.1195 27.0164 26.1111 25.8627C26.1094 25.6014 26.1178 25.3401 26.1052 25.0788C26.0623 24.1922 25.3452 23.534 24.4431 23.5455C23.5729 23.557 22.8583 24.2242 22.8465 25.0961C22.8264 26.6196 22.844 28.1439 22.8381 29.6682C22.8348 30.5745 22.2841 31.3083 21.4552 31.5359C20.6312 31.7619 19.7308 31.476 19.3197 30.7602C19.1196 30.411 19.0002 29.9697 18.9969 29.5687C18.97 26.6952 18.9868 23.8208 18.9801 20.9464C18.9776 20.0178 18.3243 19.3185 17.4575 19.2791C16.468 19.2339 15.7172 19.9143 15.7114 20.9003C15.6996 22.8741 15.7122 24.8487 15.7055 26.8225C15.7004 28.2055 14.462 29.1192 13.1724 28.701C12.3754 28.443 11.8667 27.7429 11.8558 26.8726C11.8482 26.2925 11.8651 25.7115 11.8516 25.1306C11.8297 24.207 11.1277 23.5364 10.2046 23.5414C9.28488 23.5455 8.60221 24.2201 8.57615 25.1503C8.54505 26.2465 8.13562 26.9162 7.32432 27.2013C6.03886 27.6533 4.7576 26.7666 4.7307 25.3993C4.71893 24.806 4.72902 24.2119 4.72902 23.5677C4.54238 23.5562 4.38684 23.5381 4.23047 23.5373C3.45785 23.534 2.68606 23.5479 1.91344 23.5332C0.928117 23.5143 0.250496 22.9851 0.0436786 22.1033C-0.134554 21.3391 0.24377 20.5059 0.976038 20.1715C1.26188 20.0408 1.59901 19.9743 1.91596 19.9619C2.6869 19.9315 3.46037 19.9307 4.23215 19.9578C4.61804 19.971 4.74499 19.8658 4.7391 19.4746C4.71725 17.8928 4.72649 16.3102 4.7307 14.7284C4.73322 13.7735 5.26119 13.0422 6.10191 12.8088C7.35459 12.4612 8.51478 13.2961 8.57279 14.5928C8.58624 14.8968 8.56606 15.2025 8.58036 15.5074C8.61903 16.362 9.33448 17.0391 10.2004 17.0506C11.0739 17.0621 11.8407 16.3669 11.8474 15.4934C11.8651 13.2287 11.8516 10.9649 11.8592 8.70018C11.8617 7.92776 12.1887 7.31558 12.9092 6.96306C13.57 6.6393 14.2384 6.67874 14.8572 7.07563C15.4339 7.44623 15.6971 8.0009 15.7046 8.66732C15.7139 9.48 15.7004 10.2927 15.7097 11.1062C15.7206 12.0528 16.4243 12.7702 17.3348 12.7776C18.2411 12.7858 18.9498 12.0758 18.9826 11.1267C19.0238 9.94345 19.8393 9.12337 20.9507 9.1472C22.0655 9.17103 22.8365 10.0092 22.839 11.2023C22.8415 12.6247 22.8306 14.0472 22.8457 15.4696C22.8541 16.2831 23.4662 16.9166 24.301 17.0292C25.0425 17.1294 25.8118 16.6339 26.0388 15.8895C26.0968 15.6988 26.1077 15.4893 26.1085 15.2888C26.1153 14.2871 26.1069 13.2854 26.1127 12.2837C26.1195 11.1152 26.94 10.2697 28.0506 10.2746C29.1612 10.2804 29.9658 11.1235 29.97 12.3002C29.9759 13.7661 29.9641 15.2321 29.9784 16.698C29.9851 17.4105 30.4509 17.9898 31.126 18.1919C31.8069 18.3957 32.5409 18.1747 32.9259 17.5822C33.0924 17.3258 33.1925 16.9971 33.2227 16.6923C33.2715 16.2034 33.2345 15.7062 33.2395 15.2132C33.2496 14.0734 34.0609 13.2394 35.1623 13.2345C36.2628 13.2295 37.0959 14.0652 37.1018 15.1967C37.1094 16.5904 37.1035 17.984 37.1035 19.3769L37.1026 19.9381Z" fill="#FF3797"/>
<path d="M22.8391 3.75775C22.8391 4.35186 22.8449 4.94679 22.8374 5.5409C22.8231 6.64776 22.0051 7.4547 20.9088 7.45388C19.815 7.45305 18.9961 6.64365 18.9877 5.5335C18.9785 4.3305 18.9776 3.12667 18.9877 1.92366C18.997 0.825837 19.836 -0.00164101 20.9155 2.44373e-06C21.9933 0.0016459 22.8214 0.829124 22.8374 1.93188C22.8466 2.53996 22.8391 3.14885 22.8391 3.75775Z" fill="#FF3797"/>
<path d="M22.8408 36.6874C22.8408 37.1509 22.8476 37.6152 22.84 38.0786C22.8207 39.1723 21.9783 40.0056 20.9055 39.999C19.847 39.9924 19.0097 39.1797 18.9903 38.1057C18.9727 37.1205 18.971 36.1344 18.9912 35.1492C19.0122 34.1048 19.8495 33.3085 20.9004 33.297C21.9589 33.2855 22.8122 34.1023 22.8392 35.1656C22.8509 35.6726 22.8408 36.1796 22.8408 36.6874Z" fill="#FF3797"/>
<path d="M28.0285 8.58919C26.9565 8.58344 26.1192 7.76007 26.1133 6.70662C26.1083 5.6696 26.9633 4.83391 28.0352 4.82815C29.1231 4.8224 29.9907 5.67617 29.9722 6.73456C29.9546 7.78637 29.1063 8.59494 28.0285 8.58919Z" fill="#FF3797"/>
<path d="M28.0471 28.9961C29.1131 28.9969 29.9622 29.826 29.9723 30.8754C29.9816 31.9075 29.1224 32.7637 28.0614 32.7793C26.9962 32.7949 26.1 31.9157 26.1134 30.868C26.1269 29.8203 26.9785 28.9961 28.0471 28.9961Z" fill="#FF3797"/>
<path d="M13.8015 5.04399C12.7229 5.05303 11.8687 4.23788 11.8594 3.19182C11.8502 2.15152 12.7027 1.30432 13.7662 1.29692C14.8364 1.28953 15.6923 2.10879 15.7091 3.15649C15.7251 4.19597 14.8776 5.03495 13.8015 5.04399Z" fill="#FF3797"/>
<path d="M13.7732 34.1918C12.7047 34.1894 11.8648 33.3857 11.8555 32.3594C11.8463 31.3314 12.7257 30.4826 13.7934 30.4883C14.8468 30.4941 15.6976 31.3158 15.7077 32.3347C15.7161 33.3791 14.867 34.1951 13.7732 34.1918Z" fill="#FF3797"/>
<path d="M6.66029 32.7309C5.59846 32.7333 4.75186 31.933 4.73084 30.9058C4.70982 29.8844 5.58753 29.0175 6.6502 29.0117C7.70531 29.006 8.58722 29.8672 8.57966 30.896C8.57209 31.9141 7.72044 32.7284 6.66029 32.7309Z" fill="#FF3797"/>
</svg>
